<svg width="123" height="151" fill="none" xmlns="http://www.w3.org/2000/svg"><path d="M20.714 45.192l12.501 19.614-18.412 17.29 25.853-8.164 7.31 16.417 2.707-19.59 26.734-7.413-26.21-3.551.922-21.423-9.422 18.178-21.983-11.358zM97.646 7.28l-11.7 20.103-23.808-8.435 19.11 19.232-11.239 14.023 18.651-6.576 18.845 20.36-8.86-24.92 19.46-9.004-20.474-.039.015-24.744zM77.743 77l-9.114 29.975L35 103.228l30.8 19.358-10.371 21.857 22.314-14.363 30.8 20.92-19.172-29.975L112 103.228l-26.714 6.245L77.743 77z" fill="#EEC453"/></svg>