<svg width="49" height="49" fill="none" xmlns="http://www.w3.org/2000/svg"><g clip-path="url(#a)"><path d="M49 24.5C49 10.966 38.034 0 24.5 0S0 10.966 0 24.5c0 12.228 8.96 22.364 20.672 24.204V31.582h-6.224V24.5h6.224v-5.398c0-6.14 3.655-9.531 9.253-9.531 2.682 0 5.485.478 5.485.478v6.026h-3.09c-3.043 0-3.992 1.889-3.992 3.826V24.5h6.795l-1.087 7.082h-5.708v17.122C40.041 46.864 49 36.728 49 24.5z" fill="#195E24"/></g><defs><clipPath id="a"><path fill="#fff" d="M0 0H49V49H0z"/></clipPath></defs></svg>