<svg width="52" height="51" fill="none" xmlns="http://www.w3.org/2000/svg"><g clip-path="url(#a)"><path d="M26.006 12.424c-7.378 0-13.33 5.838-13.33 13.076s5.952 13.076 13.33 13.076S39.335 32.738 39.335 25.5s-5.951-13.076-13.33-13.076zm0 21.577c-4.768 0-8.666-3.812-8.666-8.501s3.886-8.5 8.666-8.5 8.666 3.811 8.666 8.5-3.898 8.5-8.666 8.5zm16.983-22.112c0 1.696-1.392 3.05-3.109 3.05-1.728 0-3.109-1.365-3.109-3.05 0-1.684 1.392-3.05 3.11-3.05 1.716 0 3.108 1.366 3.108 3.05zm8.828 3.096c-.197-4.086-1.148-7.705-4.199-10.686-3.04-2.982-6.729-3.915-10.893-4.12-4.292-.239-17.158-.239-21.45 0-4.153.194-7.842 1.127-10.893 4.108-3.05 2.982-3.99 6.6-4.2 10.686-.243 4.211-.243 16.832 0 21.042.198 4.086 1.15 7.704 4.2 10.686 3.051 2.982 6.729 3.915 10.893 4.12 4.292.239 17.158.239 21.45 0 4.164-.194 7.854-1.127 10.893-4.12 3.04-2.982 3.99-6.6 4.2-10.686.243-4.21.243-16.82 0-21.03zm-5.545 25.548c-.905 2.23-2.657 3.949-4.942 4.848-3.422 1.331-11.542 1.024-15.324 1.024s-11.914.296-15.325-1.024c-2.273-.888-4.025-2.606-4.942-4.848C4.382 37.176 4.695 29.21 4.695 25.5c0-3.71-.301-11.687 1.044-15.033.905-2.23 2.657-3.95 4.942-4.848 3.423-1.332 11.543-1.024 15.325-1.024S37.92 4.299 41.33 5.619c2.274.888 4.026 2.606 4.942 4.848 1.357 3.357 1.044 11.323 1.044 15.033 0 3.71.313 11.687-1.044 15.033z" fill="#195E24"/></g><defs><clipPath id="a"><path fill="#fff" d="M0 0H52V51H0z"/></clipPath></defs></svg>