<svg width="319" height="235" fill="none" xmlns="http://www.w3.org/2000/svg"><path d="M0 140.699L1.86 51h75.019v17.183h-58.9v19.564l20.46.53v15.727H17.98v20.095l29.14-3.495v20.095H0z" fill="#E1DED6"/><path d="M51.46 71.386h25.419v11.94h-10.54V124.1h42.779v16.6H51.459V71.386z" fill="#E1DED6"/><path d="M81.219 51v69.604h15.81V98.47h15.809V140.7h14.88V51h-14.88v32.326h-15.81V51h-15.81zM132.988 140.699V78.376h33.479v62.323h-33.479zM132.988 72.842V57.407l8.37 2.621-8.37 12.814zM135.468 74.298l9.61-12.231 3.41 12.231h-13.02zM58.797 179.379v-33.404h29.444v11.351H74.093v12.323h24.473v64.861H41.208v-40.213h17.59v13.62h25.237v-28.538H58.798zM103.155 234.51v-40.213h30.591v40.213h-30.591z" fill="#E1DED6"/><path d="M133.746 190.729h-18.355v-33.403h-8.413v-11.351h29.444l13.766 42.16v-42.16h15.678v88.535h-15.678l-16.442-64.861v21.08zM172.821 209.292v-63.317h37.02v63.317h-37.02z" fill="#E1DED6"/><path d="M216.511 215.292v-69.317h26.556c8.366 0 17.944 11.243 16.239 22.105-1.969 12.534-15.225 19.839-23.128 20.055l28.2 46.375h-15.606l-19.975-34.677-.05 34.677h-31.356v-19.218h19.12zM270.777 234.618l-1.476-88.643H319v20.434l-34.445-3.76v18.383l18.207-1.253v13.787h-18.207v21.726l31.985-3.483v22.809h-45.763z" fill="#E1DED6"/><path d="M228.655 177.633v-19.522c5.549.686 16.647 3.179 16.647 9.768s-11.098 8.897-16.647 9.754zM115.322 211.814l3.04-12.02 1.381 12.02 7.82-2.146-5.528 6.01 5.17 11.292-8.843-7.839-8.568 8.1 4.422-10.974-7.462-6.794 8.568 2.351zM188.153 174.146l3.41-13.397 1.55 13.397 8.771-2.393-6.2 6.699 5.799 12.585-9.92-8.737-9.61 9.028 4.96-12.232-8.37-7.571 9.61 2.621zM145.905 105.552l3.41-13.396 1.55 13.396 8.771-2.392-6.2 6.698 5.799 12.586-9.92-8.737-9.61 9.028 4.96-12.232-8.37-7.572 9.61 2.621z" fill="#195E24"/><path d="M255.628 99.241l7.579 9.36 7.393-49.74 31.547 2.591-3.292 30.096-22.73-17.48-5.737 50.592-22.121-6.329-2.064-12.702 9.425-6.388zM204.994 71.035l13.875 4.871-24.38-56.586L228.822 1.7l15.975 33.478-34.793-3.573 26.644 56.408-26.98 7.654-10.319-11.906 5.645-12.726z" fill="#56A963"/></svg>