<svg width="163" height="169" fill="none" xmlns="http://www.w3.org/2000/svg"><path d="M95.5 15.707c5.219.804 19.279-6.764 25.657-10.648-5.235 2.16-9.509 1.616-10.991 1.074-12.286 2.794-16.477 6.047-17.037 7.325-7.31 2.783-13.766 3.139-16.079 2.969-21.802-.273-24.954 8.588-23.805 13.053l3.652 14.072-2.076.623 26.712 96.686c.376.627.444 2.235-2.3 3.649-2.744 1.414-3.762-.599-3.928-1.783-4.08-11.725-12.916-36.304-15.627-40.819-2.71-4.514-10.212-8.284-13.625-9.604 4.825-10.324-5.464-5.021-11.306 1.909-4.674 5.544-8.353 11.135-9.609 13.237-6.197 11.032 2.038 6.172 6.93 2.363 20.678 8.6 23.047 29.717 25.285 37.184 2.238 7.468 10.083 12.886 22.743 9.832 10.128-2.444 15.117-9.956 16.346-13.407l5.912-1.032.266-10.438-3.633 1.089-9.054-30.211-1.557.466c-.561-3.383-2.845-3.833-3.917-3.635L68.996 48.065l1.558-.467-5.199-15.459-1.557.467c-.643-3.655-2.601-4.276-3.5-4.13.133-5.22 7.104-10.268 15.388-9.05 6.627.973 15.97-2.074 19.814-3.72z" fill="#EEC453"/><path d="M25.524 112.514c-4.467 2.078 2.953-9.024 6.81-13.14 13.985-17.508 14.81-11.466 9.77-5.147-4.522 5.671-12.245 16.27-16.58 18.287z" fill="#B46144"/><ellipse cx="61.373" cy="58.488" rx="2.167" ry="3.898" transform="rotate(-16.682 61.373 58.488)" fill="#B46144"/><ellipse cx="69.511" cy="85.644" rx="2.167" ry="3.898" transform="rotate(-16.682 69.51 85.644)" fill="#B46144"/><ellipse cx="66.663" cy="76.139" rx="2.167" ry="3.898" transform="rotate(-16.682 66.663 76.14)" fill="#B46144"/><ellipse cx="64.018" cy="67.314" rx="2.167" ry="3.898" transform="rotate(-16.682 64.018 67.314)" fill="#B46144"/><path d="M95.452 16.192c-3.454.36-3.226-1.568-2.68-2.576 1.59-3.181 13.426-6.84 19.144-8.272 1.585 1.89 8.906.006 12.369-1.172-20.198 11.123-24.516 11.572-28.833 12.02z" fill="#88371B"/></svg>