<svg width="56" height="51" fill="none" xmlns="http://www.w3.org/2000/svg"><path d="M50.244 12.71c.035.558.035 1.116.035 1.674C50.28 31.397 38.731 51 17.624 51 11.122 51 5.081 48.888 0 45.223c.924.12 1.812.16 2.772.16 5.365 0 10.304-2.033 14.248-5.5-5.045-.119-9.274-3.824-10.73-8.925.71.12 1.42.2 2.167.2 1.03 0 2.06-.16 3.02-.438-5.259-1.196-9.203-6.375-9.203-12.63v-.16a10.633 10.633 0 005.188 1.633c-3.092-2.31-5.117-6.255-5.117-10.718 0-2.39.569-4.582 1.564-6.494 5.65 7.81 14.142 12.909 23.665 13.467a16.217 16.217 0 01-.285-2.948C27.29 5.777 32.406 0 38.767 0c3.304 0 6.289 1.554 8.385 4.064A21.171 21.171 0 0054.437.956c-.853 2.989-2.666 5.499-5.046 7.092C51.7 7.77 53.939 7.052 56 6.056c-1.563 2.55-3.518 4.821-5.756 6.654z" fill="#195E24"/></svg>